# xmcd
#
# Track frame offsets:
#	150
#	14266
#	30851
#	45561
#	62834
#	76638
#	93232
#	104421
#	118580
#	134828
#	148620
#	160613
#	174904
#	182163
#	197662
#	209289
#	221806
#	236825
#	260824
#	277651
#	291664
#	308043
#
# Disc length: 4297 seconds
#
# Revision: 1
# Processed by: cddbd v1.5.1PL0 Copyright (c) Steve Scherf et al.
# Submitted via: EasyCDDAExtractor 8.0.0.1
#
DISCID=3c10c716
DTITLE=Various Artist - Melô do arrocha 2004
DYEAR=2004
DGENRE=Arrocha
TTITLE0=Saliva doce - Porta retrato
TTITLE1=Márcio - Vou Arrochar você
TTITLE2=Novo tom - Chora guitarra
TTITLE3=Só love - Apê, pê, ô
TTITLE4=Asas livres - Quero ser feliz
TTITLE5=Cajú com mel - Melô do arrocha
TTITLE6=Saliva doce - Pra frente e pra trás
TTITLE7=Grupo Kaprixo - Somos loucos
TTITLE8=Silvano Sales - Carência
TTITLE9=Novo tom - Bambolê
TTITLE10=Grupo Arrocha - Morena
TTITLE11=Nara Costa - Arrocha
TTITLE12=Só love - Cachorro dentro
TTITLE13=Cajú com mel - Tapinha na bundinha
TTITLE14=Saliva doce - De frente e de costas
TTITLE15=Grupo Arrocha - A malvada
TTITLE16=Novo tom - Rebola
TTITLE17=Silvano Sales - Um mundo de amor
TTITLE18=Grupo Kaprixo - O homem da lua
TTITLE19=Márcio Moreno - A dança do arrocha
TTITLE20=Só love - Chamego
TTITLE21=Novo tom - O amassa
EXTD=
EXTT0=
EXTT1=
EXTT2=
EXTT3=
EXTT4=
EXTT5=
EXTT6=
EXTT7=
EXTT8=
EXTT9=
EXTT10=
EXTT11=
EXTT12=
EXTT13=
EXTT14=
EXTT15=
EXTT16=
EXTT17=
EXTT18=
EXTT19=
EXTT20=
EXTT21=
PLAYORDER=
